<?xml version="1.0" encoding="utf-8"?>
<!-- Generator: Adobe Illustrator 19.0.0, SVG Export Plug-In . SVG Version: 6.00 Build 0)  -->
<svg version="1.1" id="Layer_1" xmlns="http://www.w3.org/2000/svg" xmlns:xlink="http://www.w3.org/1999/xlink" x="0px" y="0px"
	 viewBox="-155 52 300 690" style="enable-background:new -155 52 300 690;" xml:space="preserve">
<style type="text/css">
	.st0{fill:#999999;}
	.st1{font-family:'Arial-Black';}
	.st2{font-size:8px;}
	.st3{fill:#FFF7F3;stroke:#FFFFFF;}
	.st4{fill:#FDE0DD;stroke:#FFFFFF;}
	.st5{fill:#FCC5C0;stroke:#FFFFFF;}
	.st6{fill:#FA9FB5;stroke:#FFFFFF;}
	.st7{fill:#F768A1;stroke:#FFFFFF;}
	.st8{fill:#DD3497;stroke:#FFFFFF;}
	.st9{fill:#AE017E;stroke:#FFFFFF;}
	.st10{fill:#7A0177;stroke:#FFFFFF;}
	.st11{fill:#49006A;stroke:#FFFFFF;}
</style>
<defs  xmlns="http://www.w3.org/1999/xhtml">
	<style  type="text/css">
		<![CDATA[
html { }
body { margin: 0px; padding: 33px 0px; font-style: normal; font-variant: normal; font-weight: normal; font-stretch: normal; font-size: 14px; line-height: 1.4; font-family: Helvetica, Arial, sans-serif; color: rgb(85, 85, 85); }
h1 { margin: 0px 0px 33px; font-size: 20px; color: rgb(102, 102, 102); font-family: Helvetica, Arial, sans-serif; line-height: 1.3; font-weight: bold; -webkit-font-smoothing: antialiased; }
h2 { font-weight: normal; color: rgb(119, 119, 119); font-size: 13px; font-family: Helvetica, Arial, sans-serif; margin: -22px 0px 22px; line-height: 1.6; }
h3 { margin: 0px 0px 15px; font-family: Helvetica, Arial, sans-serif; font-weight: normal; text-transform: uppercase; padding-top: 0px; line-height: 1.2; letter-spacing: 0.05em; -webkit-font-smoothing: antialiased; font-size: 12px; color: rgb(51, 51, 51); }
.nowrap { white-space: nowrap; }
.footnotes { margin-bottom: 20px; }
.footnotes h4 { margin: 2px 0px 7px; color: rgb(102, 102, 102); font-size: 11px; }
.footnotes p, .footer p { margin: 2px 0px 0px; font-size: 12px; line-height: 1.7; color: rgb(153, 153, 153); }
.footer p { font-style: italic; }
.footer p em { font-style: normal; }
.footnotes p strong { color: rgb(102, 102, 102); }
a, a:link, a:visited { color: rgb(71, 116, 204); text-decoration: none; }
a:hover, a:active { color: rgb(188, 202, 229); }
.graphic-wrapper { position: relative; }
.graphic { position: relative; margin-bottom: 11px; }
.graphic::before, .graphic::after { content: " "; display: table; }
.graphic::after { clear: both; }
.graphic img { max-width: 100%; height: auto; }
.key { margin: -11px 0px 33px; padding: 0px; list-style-type: none; font-family: Helvetica, Arial, sans-serif; }
.key .key-item { display: inline-block; margin: 0px 18px 0px 0px; padding: 0px; line-height: 15px; }
.key .key-item b { display: inline-block; width: 15px; height: 15px; margin-right: 6px; float: left; }
.key .key-item label { white-space: nowrap; font-size: 12px; color: rgb(102, 102, 102); font-weight: normal; -webkit-font-smoothing: antialiased; }
svg { overflow: hidden; }
.axis { font-size: 11px; font-family: Helvetica, Arial, sans-serif; -webkit-font-smoothing: antialiased; fill: rgb(153, 153, 153); }
.axis path, .axis line { fill: none; stroke: rgb(204, 204, 204); shape-rendering: crispEdges; }
.axis.y path { display: none; }
.axis.y .tick line { display: none; }
.grid path { display: none; }
.grid .tick { stroke: rgb(238, 238, 238); font-family: Helvetica, Arial, sans-serif; stroke-width: 1px; shape-rendering: crispEdges; }
.grid.y g:first-child line { display: none; }
.zero-line { stroke: rgb(102, 102, 102); stroke-width: 1px; shape-rendering: crispEdges; }
line, rect { shape-rendering: crispEdges; }
.bars rect { fill: rgb(23, 128, 126); }
.labels { position: absolute; font-family: Helvetica, Arial, sans-serif; margin: 0px; padding: 0px; list-style-type: none; border: none; }
.labels li { position: absolute; text-align: right; font-size: 12px; line-height: 1.3; color: rgb(102, 102, 102); display: table; -webkit-font-smoothing: antialiased; }
.labels li span { display: table-cell; vertical-align: middle; }
.value text { font-size: 11px; font-family: Helvetica, Arial, sans-serif; -webkit-font-smoothing: antialiased; }
.value text.in { fill: rgb(255, 255, 255); }
.value text.out { fill: rgb(153, 153, 153); }
rect.date { stroke: rgb(255, 255, 255); stroke-width: 1px; }
text.monthlabel, text.daylabel { font-size: 8pt; fill: rgb(153, 153, 153); }
.d3-tip { line-height: 1; padding: 12px; color: rgb(17, 17, 17); border-radius: 2px; min-width: 60px; max-width: 60px; background: rgb(230, 230, 230); }
.d3-tip::after { box-sizing: border-box; display: inline; font-size: 10px; width: 100%; line-height: 1; color: rgb(230, 230, 230); content: "▼"; position: absolute; text-align: center; }
.d3-tip.n::after { margin: -1px 0px 0px; top: 100%; left: 0px; }
.legend-wrapper { width: 100%; }
			]]>
	</style>
</defs>
<g transform="translate(20,20)">
	<text transform="matrix(1 0 0 1 -147 48)" class="st0 st1 st2">J</text>
	<text transform="matrix(1 0 0 1 -126.4434 48)" class="st0 st1 st2">F</text>
	<text transform="matrix(1 0 0 1 -106.332 48)" class="st0 st1 st2">M</text>
	<text transform="matrix(1 0 0 1 -84.668 48)" class="st0 st1 st2">A</text>
	<text transform="matrix(1 0 0 1 -64.332 48)" class="st0 st1 st2">M</text>
	<text transform="matrix(1 0 0 1 -42 48)" class="st0 st1 st2">J</text>
	<text transform="matrix(1 0 0 1 -21 48)" class="st0 st1 st2">J</text>
	<text transform="matrix(1 0 0 1 -0.668 48)" class="st0 st1 st2">A</text>
	<text transform="matrix(1 0 0 1 20.332 48)" class="st0 st1 st2">S</text>
	<text transform="matrix(1 0 0 1 40.8887 48)" class="st0 st1 st2">O</text>
	<text transform="matrix(1 0 0 1 62.1113 48)" class="st0 st1 st2">N</text>
	<text transform="matrix(1 0 0 1 83.1113 48)" class="st0 st1 st2">D</text>
	<text transform="matrix(1 0 0 1 -165.4492 67)" class="st0 st1 st2">1</text>
	<text transform="matrix(1 0 0 1 -165.4492 88)" class="st0 st1 st2">2</text>
	<text transform="matrix(1 0 0 1 -165.4492 109)" class="st0 st1 st2">3</text>
	<text transform="matrix(1 0 0 1 -165.4492 130)" class="st0 st1 st2">4</text>
	<text transform="matrix(1 0 0 1 -165.4492 151)" class="st0 st1 st2">5</text>
	<text transform="matrix(1 0 0 1 -165.4492 172)" class="st0 st1 st2">6</text>
	<text transform="matrix(1 0 0 1 -165.4492 193)" class="st0 st1 st2">7</text>
	<text transform="matrix(1 0 0 1 -165.4492 214)" class="st0 st1 st2">8</text>
	<text transform="matrix(1 0 0 1 -165.4492 235)" class="st0 st1 st2">9</text>
	<text transform="matrix(1 0 0 1 -169.8984 256)" class="st0 st1 st2">10</text>
	<text transform="matrix(1 0 0 1 -169.3047 277)" class="st0 st1 st2">11</text>
	<text transform="matrix(1 0 0 1 -169.8984 298)" class="st0 st1 st2">12</text>
	<text transform="matrix(1 0 0 1 -169.8984 319)" class="st0 st1 st2">13</text>
	<text transform="matrix(1 0 0 1 -169.8984 340)" class="st0 st1 st2">14</text>
	<text transform="matrix(1 0 0 1 -169.8984 361)" class="st0 st1 st2">15</text>
	<text transform="matrix(1 0 0 1 -169.8984 382)" class="st0 st1 st2">16</text>
	<text transform="matrix(1 0 0 1 -169.8984 403)" class="st0 st1 st2">17</text>
	<text transform="matrix(1 0 0 1 -169.8984 424)" class="st0 st1 st2">18</text>
	<text transform="matrix(1 0 0 1 -169.8984 445)" class="st0 st1 st2">19</text>
	<text transform="matrix(1 0 0 1 -169.8984 466)" class="st0 st1 st2">20</text>
	<text transform="matrix(1 0 0 1 -169.8984 487)" class="st0 st1 st2">21</text>
	<text transform="matrix(1 0 0 1 -169.8984 508)" class="st0 st1 st2">22</text>
	<text transform="matrix(1 0 0 1 -169.8984 529)" class="st0 st1 st2">23</text>
	<text transform="matrix(1 0 0 1 -169.8984 550)" class="st0 st1 st2">24</text>
	<text transform="matrix(1 0 0 1 -169.8984 571)" class="st0 st1 st2">25</text>
	<text transform="matrix(1 0 0 1 -169.8984 592)" class="st0 st1 st2">26</text>
	<text transform="matrix(1 0 0 1 -169.8984 613)" class="st0 st1 st2">27</text>
	<text transform="matrix(1 0 0 1 -169.8984 634)" class="st0 st1 st2">28</text>
	<text transform="matrix(1 0 0 1 -169.8984 655)" class="st0 st1 st2">29</text>
	<text transform="matrix(1 0 0 1 -169.8984 676)" class="st0 st1 st2">30</text>
	<text transform="matrix(1 0 0 1 -169.8984 697)" class="st0 st1 st2">31</text>
	<rect x="76" y="556" class="st3" width="21" height="21"/>
	<rect x="-155" y="52" class="st3" width="21" height="21"/>
	<rect x="76" y="535" class="st3" width="21" height="21"/>
	<rect x="-29" y="115" class="st3" width="21" height="21"/>
	<rect x="-155" y="73" class="st4" width="21" height="21"/>
	<rect x="55" y="514" class="st4" width="21" height="21"/>
	<rect x="76" y="577" class="st4" width="21" height="21"/>
	<rect x="55" y="598" class="st4" width="21" height="21"/>
	<rect x="55" y="535" class="st4" width="21" height="21"/>
	<rect x="55" y="556" class="st4" width="21" height="21"/>
	<rect x="34" y="682" class="st4" width="21" height="21"/>
	<rect x="-92" y="52" class="st4" width="21" height="21"/>
	<rect x="55" y="619" class="st4" width="21" height="21"/>
	<rect x="-71" y="577" class="st4" width="21" height="21"/>
	<rect x="55" y="577" class="st4" width="21" height="21"/>
	<rect x="-92" y="304" class="st4" width="21" height="21"/>
	<rect x="76" y="514" class="st4" width="21" height="21"/>
	<rect x="-71" y="598" class="st4" width="21" height="21"/>
	<rect x="76" y="682" class="st4" width="21" height="21"/>
	<rect x="-155" y="304" class="st4" width="21" height="21"/>
	<rect x="-29" y="136" class="st5" width="21" height="21"/>
	<rect x="-92" y="157" class="st5" width="21" height="21"/>
	<rect x="-92" y="598" class="st5" width="21" height="21"/>
	<rect x="-113" y="661" class="st5" width="21" height="21"/>
	<rect x="-71" y="304" class="st5" width="21" height="21"/>
	<rect x="-92" y="451" class="st5" width="21" height="21"/>
	<rect x="-155" y="430" class="st5" width="21" height="21"/>
	<rect x="34" y="304" class="st5" width="21" height="21"/>
	<rect x="-155" y="346" class="st5" width="21" height="21"/>
	<rect x="55" y="493" class="st5" width="21" height="21"/>
	<rect x="-113" y="682" class="st5" width="21" height="21"/>
	<rect x="-71" y="115" class="st5" width="21" height="21"/>
	<rect x="-92" y="640" class="st5" width="21" height="21"/>
	<rect x="76" y="178" class="st5" width="21" height="21"/>
	<rect x="-92" y="472" class="st5" width="21" height="21"/>
	<rect x="-71" y="262" class="st5" width="21" height="21"/>
	<rect x="-113" y="514" class="st5" width="21" height="21"/>
	<rect x="-155" y="640" class="st5" width="21" height="21"/>
	<rect x="-92" y="619" class="st5" width="21" height="21"/>
	<rect x="-92" y="325" class="st5" width="21" height="21"/>
	<rect x="-155" y="451" class="st5" width="21" height="21"/>
	<rect x="-113" y="220" class="st5" width="21" height="21"/>
	<rect x="-155" y="220" class="st5" width="21" height="21"/>
	<rect x="-155" y="367" class="st5" width="21" height="21"/>
	<rect x="-134" y="388" class="st5" width="21" height="21"/>
	<rect x="-113" y="367" class="st5" width="21" height="21"/>
	<rect x="-134" y="304" class="st5" width="21" height="21"/>
	<rect x="-134" y="94" class="st5" width="21" height="21"/>
	<rect x="-155" y="598" class="st5" width="21" height="21"/>
	<rect x="-134" y="640" class="st5" width="21" height="21"/>
	<rect x="-113" y="73" class="st5" width="21" height="21"/>
	<rect x="-92" y="178" class="st5" width="21" height="21"/>
	<rect x="-155" y="199" class="st5" width="21" height="21"/>
	<rect x="-155" y="577" class="st5" width="21" height="21"/>
	<rect x="13" y="52" class="st5" width="21" height="21"/>
	<rect x="55" y="661" class="st5" width="21" height="21"/>
	<rect x="-134" y="430" class="st5" width="21" height="21"/>
	<rect x="-71" y="619" class="st5" width="21" height="21"/>
	<rect x="76" y="199" class="st5" width="21" height="21"/>
	<rect x="76" y="220" class="st5" width="21" height="21"/>
	<rect x="-92" y="493" class="st6" width="21" height="21"/>
	<rect x="34" y="430" class="st6" width="21" height="21"/>
	<rect x="-155" y="493" class="st6" width="21" height="21"/>
	<rect x="55" y="640" class="st6" width="21" height="21"/>
	<rect x="-92" y="346" class="st6" width="21" height="21"/>
	<rect x="-71" y="556" class="st6" width="21" height="21"/>
	<rect x="-134" y="136" class="st6" width="21" height="21"/>
	<rect x="-92" y="661" class="st6" width="21" height="21"/>
	<rect x="-134" y="535" class="st6" width="21" height="21"/>
	<rect x="13" y="73" class="st6" width="21" height="21"/>
	<rect x="-113" y="535" class="st6" width="21" height="21"/>
	<rect x="-134" y="220" class="st6" width="21" height="21"/>
	<rect x="-155" y="157" class="st6" width="21" height="21"/>
	<rect x="-92" y="199" class="st6" width="21" height="21"/>
	<rect x="-71" y="409" class="st6" width="21" height="21"/>
	<rect x="-113" y="241" class="st6" width="21" height="21"/>
	<rect x="-113" y="262" class="st6" width="21" height="21"/>
	<rect x="-134" y="514" class="st6" width="21" height="21"/>
	<rect x="-155" y="472" class="st6" width="21" height="21"/>
	<rect x="-134" y="577" class="st6" width="21" height="21"/>
	<rect x="-155" y="661" class="st6" width="21" height="21"/>
	<rect x="-155" y="283" class="st6" width="21" height="21"/>
	<rect x="55" y="220" class="st6" width="21" height="21"/>
	<rect x="34" y="577" class="st6" width="21" height="21"/>
	<rect x="-113" y="409" class="st6" width="21" height="21"/>
	<rect x="76" y="325" class="st6" width="21" height="21"/>
	<rect x="-134" y="367" class="st6" width="21" height="21"/>
	<rect x="-155" y="619" class="st6" width="21" height="21"/>
	<rect x="-71" y="157" class="st6" width="21" height="21"/>
	<rect x="-71" y="430" class="st6" width="21" height="21"/>
	<rect x="-134" y="73" class="st6" width="21" height="21"/>
	<rect x="-155" y="136" class="st6" width="21" height="21"/>
	<rect x="-134" y="157" class="st6" width="21" height="21"/>
	<rect x="-71" y="283" class="st6" width="21" height="21"/>
	<rect x="-113" y="304" class="st6" width="21" height="21"/>
	<rect x="-92" y="220" class="st6" width="21" height="21"/>
	<rect x="-113" y="556" class="st6" width="21" height="21"/>
	<rect x="34" y="598" class="st6" width="21" height="21"/>
	<rect x="-113" y="115" class="st6" width="21" height="21"/>
	<rect x="-134" y="241" class="st6" width="21" height="21"/>
	<rect x="-92" y="514" class="st6" width="21" height="21"/>
	<rect x="-71" y="682" class="st6" width="21" height="21"/>
	<rect x="76" y="304" class="st6" width="21" height="21"/>
	<rect x="-134" y="115" class="st6" width="21" height="21"/>
	<rect x="-50" y="199" class="st6" width="21" height="21"/>
	<rect x="55" y="241" class="st6" width="21" height="21"/>
	<rect x="-113" y="640" class="st6" width="21" height="21"/>
	<rect x="-155" y="514" class="st6" width="21" height="21"/>
	<rect x="34" y="451" class="st6" width="21" height="21"/>
	<rect x="-134" y="598" class="st6" width="21" height="21"/>
	<rect x="-113" y="577" class="st6" width="21" height="21"/>
	<rect x="-134" y="409" class="st6" width="21" height="21"/>
	<rect x="34" y="283" class="st6" width="21" height="21"/>
	<rect x="55" y="367" class="st6" width="21" height="21"/>
	<rect x="-71" y="136" class="st6" width="21" height="21"/>
	<rect x="-50" y="220" class="st6" width="21" height="21"/>
	<rect x="-113" y="430" class="st6" width="21" height="21"/>
	<rect x="-92" y="577" class="st6" width="21" height="21"/>
	<rect x="-71" y="640" class="st6" width="21" height="21"/>
	<rect x="34" y="472" class="st6" width="21" height="21"/>
	<rect x="-92" y="367" class="st6" width="21" height="21"/>
	<rect x="-92" y="430" class="st6" width="21" height="21"/>
	<rect x="55" y="304" class="st6" width="21" height="21"/>
	<rect x="-92" y="136" class="st6" width="21" height="21"/>
	<rect x="-155" y="178" class="st6" width="21" height="21"/>
	<rect x="-50" y="346" class="st6" width="21" height="21"/>
	<rect x="-155" y="409" class="st6" width="21" height="21"/>
	<rect x="-113" y="94" class="st6" width="21" height="21"/>
	<rect x="-134" y="451" class="st6" width="21" height="21"/>
	<rect x="55" y="73" class="st6" width="21" height="21"/>
	<rect x="-71" y="94" class="st6" width="21" height="21"/>
	<rect x="-71" y="178" class="st6" width="21" height="21"/>
	<rect x="55" y="388" class="st6" width="21" height="21"/>
	<rect x="-134" y="283" class="st6" width="21" height="21"/>
	<rect x="-113" y="136" class="st6" width="21" height="21"/>
	<rect x="-134" y="556" class="st6" width="21" height="21"/>
	<rect x="55" y="94" class="st6" width="21" height="21"/>
	<rect x="-155" y="325" class="st6" width="21" height="21"/>
	<rect x="-113" y="388" class="st6" width="21" height="21"/>
	<rect x="76" y="157" class="st7" width="21" height="21"/>
	<rect x="34" y="619" class="st7" width="21" height="21"/>
	<rect x="76" y="241" class="st7" width="21" height="21"/>
	<rect x="-50" y="493" class="st7" width="21" height="21"/>
	<rect x="-134" y="52" class="st7" width="21" height="21"/>
	<rect x="55" y="115" class="st7" width="21" height="21"/>
	<rect x="55" y="262" class="st7" width="21" height="21"/>
	<rect x="-155" y="556" class="st7" width="21" height="21"/>
	<rect x="-155" y="94" class="st7" width="21" height="21"/>
	<rect x="-113" y="283" class="st7" width="21" height="21"/>
	<rect x="-134" y="262" class="st7" width="21" height="21"/>
	<rect x="-113" y="493" class="st7" width="21" height="21"/>
	<rect x="34" y="325" class="st7" width="21" height="21"/>
	<rect x="-92" y="283" class="st7" width="21" height="21"/>
	<rect x="34" y="661" class="st7" width="21" height="21"/>
	<rect x="76" y="346" class="st7" width="21" height="21"/>
	<rect x="-113" y="199" class="st7" width="21" height="21"/>
	<rect x="-92" y="73" class="st7" width="21" height="21"/>
	<rect x="-155" y="682" class="st7" width="21" height="21"/>
	<rect x="-155" y="262" class="st7" width="21" height="21"/>
	<rect x="55" y="409" class="st7" width="21" height="21"/>
	<rect x="-71" y="451" class="st7" width="21" height="21"/>
	<rect x="76" y="73" class="st7" width="21" height="21"/>
	<rect x="34" y="640" class="st7" width="21" height="21"/>
	<rect x="-155" y="388" class="st7" width="21" height="21"/>
	<rect x="76" y="52" class="st7" width="21" height="21"/>
	<rect x="-50" y="52" class="st7" width="21" height="21"/>
	<rect x="-29" y="304" class="st7" width="21" height="21"/>
	<rect x="-92" y="241" class="st7" width="21" height="21"/>
	<rect x="-92" y="535" class="st7" width="21" height="21"/>
	<rect x="13" y="94" class="st7" width="21" height="21"/>
	<rect x="-50" y="514" class="st7" width="21" height="21"/>
	<rect x="-113" y="346" class="st7" width="21" height="21"/>
	<rect x="-71" y="325" class="st7" width="21" height="21"/>
	<rect x="-50" y="241" class="st7" width="21" height="21"/>
	<rect x="-50" y="94" class="st7" width="21" height="21"/>
	<rect x="55" y="283" class="st7" width="21" height="21"/>
	<rect x="-113" y="598" class="st7" width="21" height="21"/>
	<rect x="-113" y="157" class="st7" width="21" height="21"/>
	<rect x="-92" y="94" class="st7" width="21" height="21"/>
	<rect x="-50" y="367" class="st7" width="21" height="21"/>
	<rect x="76" y="262" class="st7" width="21" height="21"/>
	<rect x="-155" y="115" class="st7" width="21" height="21"/>
	<rect x="-50" y="388" class="st7" width="21" height="21"/>
	<rect x="-92" y="388" class="st7" width="21" height="21"/>
	<rect x="-134" y="199" class="st7" width="21" height="21"/>
	<rect x="-71" y="241" class="st7" width="21" height="21"/>
	<rect x="-134" y="472" class="st7" width="21" height="21"/>
	<rect x="34" y="136" class="st7" width="21" height="21"/>
	<rect x="-50" y="73" class="st7" width="21" height="21"/>
	<rect x="34" y="157" class="st7" width="21" height="21"/>
	<rect x="-71" y="388" class="st7" width="21" height="21"/>
	<rect x="-113" y="52" class="st7" width="21" height="21"/>
	<rect x="-71" y="199" class="st7" width="21" height="21"/>
	<rect x="76" y="94" class="st7" width="21" height="21"/>
	<rect x="76" y="115" class="st7" width="21" height="21"/>
	<rect x="-134" y="493" class="st7" width="21" height="21"/>
	<rect x="-50" y="262" class="st7" width="21" height="21"/>
	<rect x="-50" y="535" class="st7" width="21" height="21"/>
	<rect x="34" y="178" class="st7" width="21" height="21"/>
	<rect x="34" y="493" class="st7" width="21" height="21"/>
	<rect x="34" y="409" class="st7" width="21" height="21"/>
	<rect x="-50" y="178" class="st7" width="21" height="21"/>
	<rect x="-155" y="535" class="st7" width="21" height="21"/>
	<rect x="-71" y="661" class="st7" width="21" height="21"/>
	<rect x="-92" y="409" class="st7" width="21" height="21"/>
	<rect x="-50" y="115" class="st7" width="21" height="21"/>
	<rect x="55" y="136" class="st7" width="21" height="21"/>
	<rect x="-134" y="619" class="st7" width="21" height="21"/>
	<rect x="-71" y="52" class="st7" width="21" height="21"/>
	<rect x="-155" y="241" class="st7" width="21" height="21"/>
	<rect x="-8" y="94" class="st7" width="21" height="21"/>
	<rect x="-92" y="556" class="st7" width="21" height="21"/>
	<rect x="-113" y="451" class="st7" width="21" height="21"/>
	<rect x="76" y="367" class="st7" width="21" height="21"/>
	<rect x="34" y="556" class="st7" width="21" height="21"/>
	<rect x="55" y="199" class="st8" width="21" height="21"/>
	<rect x="76" y="493" class="st8" width="21" height="21"/>
	<rect x="-50" y="304" class="st8" width="21" height="21"/>
	<rect x="-50" y="640" class="st8" width="21" height="21"/>
	<rect x="-134" y="346" class="st8" width="21" height="21"/>
	<rect x="-71" y="220" class="st8" width="21" height="21"/>
	<rect x="-113" y="619" class="st8" width="21" height="21"/>
	<rect x="34" y="346" class="st8" width="21" height="21"/>
	<rect x="34" y="514" class="st8" width="21" height="21"/>
	<rect x="-71" y="472" class="st8" width="21" height="21"/>
	<rect x="55" y="346" class="st8" width="21" height="21"/>
	<rect x="-29" y="598" class="st8" width="21" height="21"/>
	<rect x="55" y="157" class="st8" width="21" height="21"/>
	<rect x="-92" y="262" class="st8" width="21" height="21"/>
	<rect x="-113" y="178" class="st8" width="21" height="21"/>
	<rect x="55" y="430" class="st8" width="21" height="21"/>
	<rect x="-134" y="178" class="st8" width="21" height="21"/>
	<rect x="-29" y="451" class="st8" width="21" height="21"/>
	<rect x="34" y="262" class="st8" width="21" height="21"/>
	<rect x="-8" y="535" class="st8" width="21" height="21"/>
	<rect x="34" y="367" class="st8" width="21" height="21"/>
	<rect x="34" y="199" class="st8" width="21" height="21"/>
	<rect x="-50" y="472" class="st8" width="21" height="21"/>
	<rect x="-71" y="73" class="st8" width="21" height="21"/>
	<rect x="-50" y="325" class="st8" width="21" height="21"/>
	<rect x="34" y="220" class="st8" width="21" height="21"/>
	<rect x="13" y="178" class="st8" width="21" height="21"/>
	<rect x="76" y="136" class="st8" width="21" height="21"/>
	<rect x="-113" y="325" class="st8" width="21" height="21"/>
	<rect x="-50" y="409" class="st8" width="21" height="21"/>
	<rect x="13" y="661" class="st8" width="21" height="21"/>
	<rect x="-50" y="136" class="st8" width="21" height="21"/>
	<rect x="-8" y="241" class="st8" width="21" height="21"/>
	<rect x="-50" y="430" class="st8" width="21" height="21"/>
	<rect x="13" y="115" class="st8" width="21" height="21"/>
	<rect x="-71" y="346" class="st8" width="21" height="21"/>
	<rect x="-29" y="157" class="st8" width="21" height="21"/>
	<rect x="-50" y="661" class="st8" width="21" height="21"/>
	<rect x="-8" y="115" class="st8" width="21" height="21"/>
	<rect x="55" y="52" class="st8" width="21" height="21"/>
	<rect x="-113" y="472" class="st8" width="21" height="21"/>
	<rect x="13" y="640" class="st8" width="21" height="21"/>
	<rect x="-8" y="556" class="st8" width="21" height="21"/>
	<rect x="-92" y="115" class="st8" width="21" height="21"/>
	<rect x="-8" y="262" class="st8" width="21" height="21"/>
	<rect x="-50" y="283" class="st8" width="21" height="21"/>
	<rect x="-71" y="535" class="st8" width="21" height="21"/>
	<rect x="-50" y="556" class="st8" width="21" height="21"/>
	<rect x="-8" y="388" class="st8" width="21" height="21"/>
	<rect x="-29" y="619" class="st8" width="21" height="21"/>
	<rect x="-8" y="682" class="st8" width="21" height="21"/>
	<rect x="55" y="325" class="st8" width="21" height="21"/>
	<rect x="-29" y="640" class="st8" width="21" height="21"/>
	<rect x="13" y="619" class="st8" width="21" height="21"/>
	<rect x="-8" y="136" class="st8" width="21" height="21"/>
	<rect x="-50" y="157" class="st8" width="21" height="21"/>
	<rect x="-8" y="304" class="st9" width="21" height="21"/>
	<rect x="-8" y="577" class="st9" width="21" height="21"/>
	<rect x="34" y="535" class="st9" width="21" height="21"/>
	<rect x="-8" y="430" class="st9" width="21" height="21"/>
	<rect x="-71" y="493" class="st9" width="21" height="21"/>
	<rect x="-29" y="472" class="st9" width="21" height="21"/>
	<rect x="55" y="178" class="st9" width="21" height="21"/>
	<rect x="-71" y="367" class="st9" width="21" height="21"/>
	<rect x="-29" y="325" class="st9" width="21" height="21"/>
	<rect x="-8" y="409" class="st9" width="21" height="21"/>
	<rect x="13" y="157" class="st9" width="21" height="21"/>
	<rect x="34" y="388" class="st9" width="21" height="21"/>
	<rect x="76" y="388" class="st9" width="21" height="21"/>
	<rect x="-29" y="493" class="st9" width="21" height="21"/>
	<rect x="76" y="472" class="st9" width="21" height="21"/>
	<rect x="-29" y="94" class="st9" width="21" height="21"/>
	<rect x="34" y="115" class="st9" width="21" height="21"/>
	<rect x="-8" y="157" class="st9" width="21" height="21"/>
	<rect x="-50" y="577" class="st9" width="21" height="21"/>
	<rect x="-29" y="283" class="st9" width="21" height="21"/>
	<rect x="-29" y="430" class="st9" width="21" height="21"/>
	<rect x="-29" y="346" class="st9" width="21" height="21"/>
	<rect x="-8" y="283" class="st9" width="21" height="21"/>
	<rect x="-50" y="619" class="st9" width="21" height="21"/>
	<rect x="-29" y="577" class="st9" width="21" height="21"/>
	<rect x="-8" y="73" class="st9" width="21" height="21"/>
	<rect x="-29" y="661" class="st9" width="21" height="21"/>
	<rect x="76" y="283" class="st9" width="21" height="21"/>
	<rect x="55" y="451" class="st9" width="21" height="21"/>
	<rect x="-50" y="451" class="st9" width="21" height="21"/>
	<rect x="13" y="472" class="st9" width="21" height="21"/>
	<rect x="-29" y="52" class="st9" width="21" height="21"/>
	<rect x="-29" y="514" class="st9" width="21" height="21"/>
	<rect x="-8" y="514" class="st9" width="21" height="21"/>
	<rect x="13" y="262" class="st9" width="21" height="21"/>
	<rect x="-29" y="682" class="st9" width="21" height="21"/>
	<rect x="76" y="619" class="st10" width="21" height="21"/>
	<rect x="34" y="52" class="st10" width="21" height="21"/>
	<rect x="13" y="136" class="st10" width="21" height="21"/>
	<rect x="13" y="493" class="st10" width="21" height="21"/>
	<rect x="-71" y="514" class="st10" width="21" height="21"/>
	<rect x="-8" y="598" class="st10" width="21" height="21"/>
	<rect x="13" y="325" class="st10" width="21" height="21"/>
	<rect x="34" y="241" class="st10" width="21" height="21"/>
	<rect x="-8" y="220" class="st10" width="21" height="21"/>
	<rect x="76" y="661" class="st10" width="21" height="21"/>
	<rect x="76" y="598" class="st10" width="21" height="21"/>
	<rect x="55" y="472" class="st10" width="21" height="21"/>
	<rect x="-29" y="199" class="st10" width="21" height="21"/>
	<rect x="-29" y="367" class="st10" width="21" height="21"/>
	<rect x="-29" y="220" class="st10" width="21" height="21"/>
	<rect x="-8" y="451" class="st10" width="21" height="21"/>
	<rect x="-8" y="178" class="st10" width="21" height="21"/>
	<rect x="76" y="640" class="st10" width="21" height="21"/>
	<rect x="13" y="199" class="st10" width="21" height="21"/>
	<rect x="-50" y="598" class="st10" width="21" height="21"/>
	<rect x="-134" y="325" class="st10" width="21" height="21"/>
	<rect x="34" y="73" class="st10" width="21" height="21"/>
	<rect x="-29" y="535" class="st10" width="21" height="21"/>
	<rect x="-8" y="367" class="st10" width="21" height="21"/>
	<rect x="13" y="514" class="st10" width="21" height="21"/>
	<rect x="-29" y="73" class="st10" width="21" height="21"/>
	<rect x="13" y="304" class="st10" width="21" height="21"/>
	<rect x="-8" y="472" class="st10" width="21" height="21"/>
	<rect x="-8" y="661" class="st10" width="21" height="21"/>
	<rect x="-8" y="325" class="st10" width="21" height="21"/>
	<rect x="34" y="94" class="st10" width="21" height="21"/>
	<rect x="-29" y="178" class="st10" width="21" height="21"/>
	<rect x="13" y="598" class="st10" width="21" height="21"/>
	<rect x="13" y="346" class="st10" width="21" height="21"/>
	<rect x="13" y="367" class="st10" width="21" height="21"/>
	<rect x="76" y="409" class="st10" width="21" height="21"/>
	<rect x="-29" y="388" class="st10" width="21" height="21"/>
	<rect x="-29" y="241" class="st10" width="21" height="21"/>
	<rect x="-29" y="556" class="st10" width="21" height="21"/>
	<rect x="13" y="535" class="st11" width="21" height="21"/>
	<rect x="-8" y="52" class="st11" width="21" height="21"/>
	<rect x="-29" y="262" class="st11" width="21" height="21"/>
	<rect x="-29" y="409" class="st11" width="21" height="21"/>
	<rect x="-8" y="493" class="st11" width="21" height="21"/>
	<rect x="-8" y="619" class="st11" width="21" height="21"/>
	<rect x="76" y="451" class="st11" width="21" height="21"/>
	<rect x="13" y="556" class="st11" width="21" height="21"/>
	<rect x="13" y="220" class="st11" width="21" height="21"/>
	<rect x="-8" y="346" class="st11" width="21" height="21"/>
	<rect x="-8" y="640" class="st11" width="21" height="21"/>
	<rect x="13" y="241" class="st11" width="21" height="21"/>
	<rect x="-8" y="199" class="st11" width="21" height="21"/>
	<rect x="13" y="388" class="st11" width="21" height="21"/>
	<rect x="13" y="451" class="st11" width="21" height="21"/>
	<rect x="76" y="430" class="st11" width="21" height="21"/>
	<rect x="13" y="577" class="st11" width="21" height="21"/>
	<rect x="13" y="409" class="st11" width="21" height="21"/>
	<rect x="13" y="283" class="st11" width="21" height="21"/>
	<rect x="13" y="430" class="st11" width="21" height="21"/>
</g>
</svg>
